<svg width="55" height="36" viewBox="0 0 55 36" fill="none" xmlns="http://www.w3.org/2000/svg">
<circle cx="17.7941" cy="17.7941" r="16.7157" fill="url(#paint0_linear_2_172)" stroke="black" stroke-width="2.15686"/>
<path d="M14.5588 15.0984C14.5588 14.2447 13.4235 14.0185 13.1222 14.8172C12.3936 16.7492 11.8627 18.4776 11.8627 19.412C11.8627 22.39 14.2769 24.8042 17.2549 24.8042C20.2329 24.8042 22.647 22.39 22.647 19.412C22.647 18.4081 22.0343 16.4878 21.2218 14.383C20.1694 11.6565 19.6432 10.2933 18.9937 10.2199C18.7858 10.1964 18.5591 10.2386 18.3736 10.3354C17.7941 10.6378 17.7941 12.1246 17.7941 15.0984C17.7941 15.9918 17.0699 16.716 16.1765 16.716C15.2831 16.716 14.5588 15.9918 14.5588 15.0984Z" fill="white"/>
<circle cx="37.2059" cy="17.7941" r="16.7157" fill="url(#paint1_linear_2_172)" stroke="#12001A" stroke-width="2.15686"/>
<path d="M36.3957 24.1818L36.7174 22.5731C36.7771 22.2747 36.8069 22.1255 36.726 22.0268C36.6452 21.9281 36.493 21.9281 36.1887 21.9281H35.1027C34.6805 21.9281 34.4693 21.9281 34.3919 21.7914C34.3145 21.6546 34.4231 21.4735 34.6403 21.1115L36.3564 18.2513C36.5737 17.8892 36.6823 17.7082 36.6049 17.5714C36.5274 17.4347 36.3163 17.4347 35.8941 17.4347H34.0297C33.6763 17.4347 33.4995 17.4347 33.4191 17.3186C33.3387 17.2026 33.4007 17.0371 33.5249 16.7061L35.8165 10.595C35.88 10.4258 35.9117 10.3411 35.981 10.2931C36.0503 10.2451 36.1407 10.2451 36.3214 10.2451H40.3875C40.8098 10.2451 41.0209 10.2451 41.0983 10.3819C41.1758 10.5187 41.0671 10.6997 40.8499 11.0618L39.1338 13.9219C38.9166 14.284 38.8079 14.465 38.8854 14.6018C38.9628 14.7386 39.1739 14.7386 39.5962 14.7386H40.2615C40.732 14.7386 40.9673 14.7386 41.0418 14.8876C41.1163 15.0367 40.9752 15.2249 40.6928 15.6013L39.2909 17.4706C39.0085 17.8471 38.8674 18.0353 38.9419 18.1843C39.0164 18.3334 39.2517 18.3334 39.7222 18.3334H41.1361C41.6158 18.3334 41.8556 18.3334 41.9295 18.4845C42.0034 18.6357 41.8562 18.825 41.5617 19.2036L41.5617 19.2036L37.3501 24.6186C36.7953 25.3319 36.5179 25.6885 36.3239 25.5997C36.1299 25.5109 36.2185 25.0679 36.3957 24.1818Z" fill="white"/>
<defs>
<linearGradient id="paint0_linear_2_172" x1="4.31373" y1="3.23529" x2="27.5" y2="32.8922" gradientUnits="userSpaceOnUse">
<stop stop-color="#D6F5C7"/>
<stop offset="1" stop-color="#178B59"/>
</linearGradient>
<linearGradient id="paint1_linear_2_172" x1="23.7255" y1="3.23529" x2="46.9118" y2="32.8922" gradientUnits="userSpaceOnUse">
<stop stop-color="#04019A"/>
<stop offset="1" stop-color="#00FCD0"/>
</linearGradient>
</defs>
</svg>
